<svg width="1500" height="472" viewBox="0 0 1500 472" fill="none" xmlns="http://www.w3.org/2000/svg">
<path d="M919.958 402.559C904.449 420.342 885.108 431.996 864.61 436.671C844.162 441.334 822.92 438.984 803.399 429.713C783.812 420.41 766.532 404.388 754.151 383.141C741.76 361.878 735 336.589 735 310.5C735 284.411 741.76 259.122 754.151 237.859C766.532 216.612 783.812 200.591 803.399 191.288C822.92 182.016 844.162 179.666 864.61 184.329C885.108 189.004 904.449 200.658 919.958 218.441" stroke="black" stroke-width="48" stroke-linecap="round"/>
<path d="M924 397V335C924 334.448 923.552 334 923 334H864" stroke="black" stroke-width="48" stroke-linecap="round"/>
<path d="M24 177V445" stroke="black" stroke-width="48" stroke-linecap="round"/>
<path d="M657 236L658 445" stroke="black" stroke-width="54" stroke-linecap="round"/>
<path d="M302 177V445" stroke="black" stroke-width="48" stroke-linecap="round"/>
<path d="M109 177L302 445" stroke="black" stroke-width="48" stroke-linecap="round" stroke-dasharray="580 100"/>
<path d="M109 177L114.541 445" stroke="black" stroke-width="48" stroke-linecap="round"/>
<path d="M1193 177V445" stroke="black" stroke-width="48" stroke-linecap="round"/>
<path d="M1374 196L1374 445" stroke="black" stroke-width="48" stroke-linecap="round"/>
<path d="M1193 177V445" stroke="black" stroke-width="48" stroke-linecap="round"/>
<path d="M1063 311L1193 311" stroke="black" stroke-width="48" stroke-linecap="round"/>
<path d="M1274 177L1473 177" stroke="black" stroke-width="48" stroke-linecap="round"/>
<path d="M1000 177L1005.54 445" stroke="black" stroke-width="48" stroke-linecap="round"/>
<path d="M576 249.949V249.949C576 209.66 543.34 177 503.051 177H449.621C415.036 177 387 205.036 387 239.621V239.621C387 265.961 403.483 289.486 428.24 298.479L540.047 339.095C561.63 346.936 576 367.444 576 390.407V390.407C576 420.558 551.558 445 521.407 445H452.147C416.167 445 387 415.833 387 379.853V379.853" stroke="black" stroke-width="48" stroke-linecap="round"/>
<rect x="642" y="177" width="30" height="37" fill="black"/>
<path d="M803.668 35.9091V121H785.678V35.9091H803.668ZM895.642 35.9091V121H880.103L843.083 67.4442H842.46V121H824.47V35.9091H840.258L876.987 89.4233H877.735V35.9091H895.642ZM962.666 60.381C962.334 57.0295 960.907 54.4258 958.387 52.57C955.866 50.7141 952.445 49.7862 948.124 49.7862C945.188 49.7862 942.709 50.2017 940.687 51.0327C938.665 51.8359 937.114 52.9577 936.034 54.3981C934.981 55.8384 934.455 57.4727 934.455 59.3008C934.399 60.8242 934.718 62.1538 935.41 63.2894C936.131 64.4251 937.114 65.4084 938.36 66.2393C939.607 67.0426 941.047 67.7489 942.681 68.3583C944.316 68.94 946.061 69.4386 947.916 69.854L955.561 71.6822C959.273 72.5131 962.68 73.6211 965.782 75.006C968.885 76.391 971.571 78.0945 973.843 80.1165C976.114 82.1385 977.873 84.5206 979.119 87.2628C980.393 90.005 981.044 93.1488 981.072 96.6942C981.044 101.902 979.715 106.417 977.083 110.239C974.48 114.034 970.713 116.984 965.782 119.089C960.88 121.166 954.966 122.205 948.041 122.205C941.172 122.205 935.189 121.152 930.092 119.047C925.023 116.942 921.062 113.826 918.209 109.699C915.384 105.544 913.902 100.406 913.764 94.2844H931.172C931.366 97.1374 932.184 99.5195 933.624 101.431C935.092 103.314 937.045 104.741 939.482 105.71C941.947 106.652 944.731 107.123 947.833 107.123C950.88 107.123 953.525 106.68 955.769 105.793C958.04 104.907 959.799 103.674 961.046 102.096C962.292 100.517 962.915 98.7024 962.915 96.6527C962.915 94.7415 962.348 93.1349 961.212 91.8331C960.104 90.5312 958.47 89.4233 956.309 88.5092C954.176 87.5952 951.559 86.7642 948.457 86.0163L939.191 83.6896C932.017 81.9446 926.353 79.2163 922.198 75.5046C918.043 71.793 915.98 66.7933 916.007 60.5057C915.98 55.3537 917.351 50.8526 920.121 47.0025C922.918 43.1523 926.755 40.147 931.63 37.9865C936.505 35.826 942.044 34.7457 948.249 34.7457C954.564 34.7457 960.076 35.826 964.785 37.9865C969.522 40.147 973.206 43.1523 975.837 47.0025C978.468 50.8526 979.826 55.3121 979.909 60.381H962.666ZM999.173 121V35.9091H1032.74C1039.2 35.9091 1044.7 37.1417 1049.24 39.6069C1053.78 42.0444 1057.24 45.4375 1059.63 49.7862C1062.04 54.1072 1063.24 59.093 1063.24 64.7436C1063.24 70.3942 1062.02 75.38 1059.58 79.701C1057.15 84.022 1053.62 87.3874 1048.99 89.7972C1044.39 92.207 1038.82 93.4119 1032.29 93.4119H1010.89V78.9947H1029.38C1032.84 78.9947 1035.69 78.3991 1037.94 77.2081C1040.21 75.9893 1041.9 74.3136 1043.01 72.1808C1044.14 70.0202 1044.71 67.5412 1044.71 64.7436C1044.71 61.9183 1044.14 59.4531 1043.01 57.348C1041.9 55.2152 1040.21 53.5671 1037.94 52.4038C1035.67 51.2127 1032.79 50.6172 1029.3 50.6172H1017.16V121H999.173ZM1080.93 121V35.9091H1138.26V50.7418H1098.92V71.0174H1135.31V85.8501H1098.92V106.167H1138.43V121H1080.93ZM1233.64 65.6992H1215.45C1215.11 63.3448 1214.43 61.2535 1213.41 59.4254C1212.38 57.5696 1211.07 55.9908 1209.46 54.6889C1207.86 53.3871 1206 52.3899 1203.89 51.6974C1201.82 51.005 1199.56 50.6587 1197.12 50.6587C1192.72 50.6587 1188.88 51.7528 1185.61 53.941C1182.34 56.1016 1179.81 59.2592 1178.01 63.4141C1176.21 67.5412 1175.31 72.5547 1175.31 78.4545C1175.31 84.5206 1176.21 89.6172 1178.01 93.7443C1179.84 97.8714 1182.39 100.988 1185.66 103.093C1188.92 105.198 1192.7 106.25 1197 106.25C1199.41 106.25 1201.64 105.932 1203.69 105.295C1205.76 104.658 1207.61 103.73 1209.21 102.511C1210.82 101.265 1212.15 99.755 1213.2 97.9822C1214.28 96.2095 1215.03 94.1875 1215.45 91.9162L1233.64 91.9993C1233.17 95.9048 1232 99.6719 1230.11 103.3C1228.26 106.901 1225.75 110.128 1222.59 112.981C1219.46 115.806 1215.72 118.05 1211.37 119.712C1207.05 121.346 1202.16 122.163 1196.71 122.163C1189.12 122.163 1182.33 120.446 1176.35 117.011C1170.39 113.577 1165.68 108.605 1162.22 102.096C1158.79 95.5863 1157.07 87.706 1157.07 78.4545C1157.07 69.1754 1158.81 61.2813 1162.3 54.772C1165.79 48.2628 1170.53 43.3047 1176.51 39.8977C1182.5 36.4631 1189.23 34.7457 1196.71 34.7457C1201.64 34.7457 1206.21 35.4382 1210.42 36.8232C1214.66 38.2081 1218.41 40.2301 1221.68 42.8892C1224.95 45.5206 1227.6 48.7475 1229.65 52.57C1231.73 56.3924 1233.06 60.7688 1233.64 65.6992ZM1249.3 50.7418V35.9091H1319.19V50.7418H1293.14V121H1275.35V50.7418H1249.3ZM1411.01 78.4545C1411.01 87.7337 1409.25 95.6278 1405.73 102.137C1402.24 108.646 1397.47 113.618 1391.44 117.053C1385.43 120.46 1378.67 122.163 1371.16 122.163C1363.6 122.163 1356.81 120.446 1350.8 117.011C1344.79 113.577 1340.04 108.605 1336.55 102.096C1333.06 95.5863 1331.32 87.706 1331.32 78.4545C1331.32 69.1754 1333.06 61.2813 1336.55 54.772C1340.04 48.2628 1344.79 43.3047 1350.8 39.8977C1356.81 36.4631 1363.6 34.7457 1371.16 34.7457C1378.67 34.7457 1385.43 36.4631 1391.44 39.8977C1397.47 43.3047 1402.24 48.2628 1405.73 54.772C1409.25 61.2813 1411.01 69.1754 1411.01 78.4545ZM1392.77 78.4545C1392.77 72.4439 1391.87 67.375 1390.07 63.2479C1388.29 59.1207 1385.79 55.9908 1382.54 53.858C1379.3 51.7251 1375.51 50.6587 1371.16 50.6587C1366.81 50.6587 1363.02 51.7251 1359.78 53.858C1356.54 55.9908 1354.02 59.1207 1352.21 63.2479C1350.44 67.375 1349.56 72.4439 1349.56 78.4545C1349.56 84.4652 1350.44 89.5341 1352.21 93.6612C1354.02 97.7884 1356.54 100.918 1359.78 103.051C1363.02 105.184 1366.81 106.25 1371.16 106.25C1375.51 106.25 1379.3 105.184 1382.54 103.051C1385.79 100.918 1388.29 97.7884 1390.07 93.6612C1391.87 89.5341 1392.77 84.4652 1392.77 78.4545ZM1430.33 121V35.9091H1463.9C1470.33 35.9091 1475.81 37.0586 1480.36 39.3576C1484.93 41.6289 1488.4 44.8558 1490.78 49.0384C1493.19 53.1932 1494.4 58.082 1494.4 63.7049C1494.4 69.3555 1493.18 74.2166 1490.74 78.2883C1488.31 82.3324 1484.77 85.4347 1480.15 87.5952C1475.55 89.7557 1469.98 90.8359 1463.45 90.8359H1440.97V76.3771H1460.54C1463.97 76.3771 1466.83 75.9062 1469.1 74.9645C1471.37 74.0227 1473.06 72.6101 1474.17 70.7266C1475.3 68.843 1475.87 66.5025 1475.87 63.7049C1475.87 60.8796 1475.3 58.4975 1474.17 56.5586C1473.06 54.6197 1471.35 53.1516 1469.06 52.1545C1466.78 51.1296 1463.92 50.6172 1460.45 50.6172H1448.32V121H1430.33ZM1476.28 82.277L1497.43 121H1477.57L1456.88 82.277H1476.28Z" fill="#FFA31A"/>
<circle cx="657" cy="96" r="83" stroke="black" stroke-width="26"/>
<path d="M686.329 50.3817C693.9 55.3627 700.174 62.0772 704.631 69.9681C709.088 77.8591 711.599 86.6989 711.956 95.7545" stroke="black" stroke-width="12" stroke-linecap="round"/>
<path d="M708.673 117.19C706.489 123.297 703.279 128.988 699.181 134.015" stroke="black" stroke-width="12" stroke-linecap="round"/>
</svg>
